<svg width="19" height="19" viewBox="0 0 19 19" fill="none" xmlns="http://www.w3.org/2000/svg">
<g id="edit" clip-path="url(#clip0_2461_3437)">
<path id="Vector (Stroke)" fill-rule="evenodd" clip-rule="evenodd" d="M1.82014 2.94124C2.2421 2.51928 2.8144 2.28223 3.41113 2.28223H8.66113C9.07535 2.28223 9.41113 2.61801 9.41113 3.03223C9.41113 3.44644 9.07535 3.78223 8.66113 3.78223H3.41113C3.21222 3.78223 3.02145 3.86124 2.8808 4.0019C2.74015 4.14255 2.66113 4.33331 2.66113 4.53223V15.0322C2.66113 15.2311 2.74015 15.4219 2.8808 15.5626C3.02146 15.7032 3.21222 15.7822 3.41113 15.7822H13.9111C14.11 15.7822 14.3008 15.7032 14.4415 15.5626C14.5821 15.4219 14.6611 15.2311 14.6611 15.0322V9.78223C14.6611 9.36801 14.9969 9.03223 15.4111 9.03223C15.8253 9.03223 16.1611 9.36801 16.1611 9.78223V15.0322C16.1611 15.629 15.9241 16.2013 15.5021 16.6232C15.0802 17.0452 14.5079 17.2822 13.9111 17.2822H3.41113C2.8144 17.2822 2.2421 17.0452 1.82014 16.6232C1.39819 16.2013 1.16113 15.629 1.16113 15.0322V4.53223C1.16113 3.93549 1.39819 3.36319 1.82014 2.94124Z" fill="#BDBDBD"/>
<path id="Vector (Stroke)_2" fill-rule="evenodd" clip-rule="evenodd" d="M15.4111 2.19122C15.1881 2.19122 14.9742 2.27983 14.8165 2.43754L7.83837 9.41565L7.44192 11.0014L9.02771 10.605L16.0058 3.62688C16.1635 3.46917 16.2521 3.25526 16.2521 3.03221C16.2521 2.80917 16.1635 2.59526 16.0058 2.43754C15.8481 2.27983 15.6342 2.19122 15.4111 2.19122ZM13.7558 1.37688C14.1948 0.937863 14.7903 0.691223 15.4111 0.691223C16.032 0.691223 16.6275 0.937863 17.0665 1.37688C17.5055 1.8159 17.7521 2.41134 17.7521 3.03221C17.7521 3.65308 17.5055 4.24852 17.0665 4.68754L9.94148 11.8125C9.84536 11.9087 9.72492 11.9769 9.59305 12.0098L6.59305 12.7598C6.33747 12.8237 6.0671 12.7488 5.88082 12.5625C5.69453 12.3763 5.61965 12.1059 5.68354 11.8503L6.43354 8.85031C6.46651 8.71844 6.5347 8.598 6.63082 8.50188L13.7558 1.37688Z" fill="#BDBDBD"/>
</g>
<defs>
<clipPath id="clip0_2461_3437">
<rect width="18" height="18" fill="white" transform="translate(0.411133 0.0322266)"/>
</clipPath>
</defs>
</svg>
