<svg width="22" height="22" viewBox="0 0 22 22" fill="none" xmlns="http://www.w3.org/2000/svg">
<g id="image">
<path id="Vector (Stroke)" fill-rule="evenodd" clip-rule="evenodd" d="M4.5835 3.66667C4.07723 3.66667 3.66683 4.07707 3.66683 4.58333V17.4167C3.66683 17.9229 4.07723 18.3333 4.5835 18.3333H17.4168C17.9231 18.3333 18.3335 17.9229 18.3335 17.4167V4.58333C18.3335 4.07707 17.9231 3.66667 17.4168 3.66667H4.5835ZM1.8335 4.58333C1.8335 3.06455 3.06471 1.83333 4.5835 1.83333H17.4168C18.9356 1.83333 20.1668 3.06455 20.1668 4.58333V17.4167C20.1668 18.9355 18.9356 20.1667 17.4168 20.1667H4.5835C3.06471 20.1667 1.8335 18.9355 1.8335 17.4167V4.58333Z" fill="black"/>
<path id="Vector (Stroke)_2" fill-rule="evenodd" clip-rule="evenodd" d="M7.79167 7.33333C7.53854 7.33333 7.33333 7.53854 7.33333 7.79167C7.33333 8.0448 7.53854 8.25 7.79167 8.25C8.0448 8.25 8.25 8.0448 8.25 7.79167C8.25 7.53854 8.0448 7.33333 7.79167 7.33333ZM5.5 7.79167C5.5 6.52601 6.52601 5.5 7.79167 5.5C9.05732 5.5 10.0833 6.52601 10.0833 7.79167C10.0833 9.05732 9.05732 10.0833 7.79167 10.0833C6.52601 10.0833 5.5 9.05732 5.5 7.79167Z" fill="black"/>
<path id="Vector (Stroke)_3" fill-rule="evenodd" clip-rule="evenodd" d="M14.0183 8.51849C14.3763 8.1605 14.9567 8.1605 15.3147 8.51849L19.898 13.1018C20.256 13.4598 20.256 14.0402 19.898 14.3982C19.54 14.7562 18.9596 14.7562 18.6017 14.3982L14.6665 10.463L5.23135 19.8982C4.87337 20.2562 4.29297 20.2562 3.93499 19.8982C3.57701 19.5402 3.57701 18.9598 3.93499 18.6018L14.0183 8.51849Z" fill="black"/>
</g>
</svg>
