<svg width="163" height="58" viewBox="0 0 163 58" fill="none" xmlns="http://www.w3.org/2000/svg">
<path d="M21.84 31.576C21.392 32.072 21.168 32.608 21.168 33.184C21.168 33.76 21.408 34.216 21.888 34.552C22.368 34.888 23.184 35.056 24.336 35.056C25.504 35.056 26.408 34.816 27.048 34.336C27.688 33.856 28.008 33.376 28.008 32.896C28.008 32.416 27.744 32.12 27.216 32.008C26.688 31.912 25.848 31.856 24.696 31.84C23.56 31.824 22.608 31.736 21.84 31.576ZM19.776 29.536C19.776 28.896 20.016 28.28 20.496 27.688C20.832 27.272 21.216 26.896 21.648 26.56C21.408 26.448 21.184 26.312 20.976 26.152C20.176 25.512 19.776 24.552 19.776 23.272C19.776 21.976 20.216 20.992 21.096 20.32C21.976 19.632 23.072 19.288 24.384 19.288C25.552 19.288 26.52 19.536 27.288 20.032C28.328 19.536 29.336 19.272 30.312 19.24C30.472 19.512 30.552 19.84 30.552 20.224C30.552 20.592 30.528 20.848 30.48 20.992C29.936 20.864 29.368 20.8 28.776 20.8C28.536 20.8 28.32 20.8 28.128 20.8C28.576 21.408 28.8 22.192 28.8 23.152C28.8 24.432 28.36 25.416 27.48 26.104C26.6 26.776 25.504 27.112 24.192 27.112C23.456 27.112 22.808 27.016 22.248 26.824C21.768 27.4 21.528 27.952 21.528 28.48C21.528 28.96 21.8 29.248 22.344 29.344C22.824 29.424 23.36 29.464 23.952 29.464C24.56 29.464 25.024 29.472 25.344 29.488C25.68 29.488 26.104 29.512 26.616 29.56C27.128 29.608 27.528 29.688 27.816 29.8C28.12 29.912 28.432 30.056 28.752 30.232C29.344 30.568 29.64 31.16 29.64 32.008C29.64 33.16 29.064 34.152 27.912 34.984C26.76 35.832 25.208 36.256 23.256 36.256C20.632 36.256 19.32 35.504 19.32 34C19.32 33.456 19.472 32.984 19.776 32.584C20.096 32.2 20.552 31.792 21.144 31.36C20.232 31.072 19.776 30.464 19.776 29.536ZM24.36 25.936C25.848 25.936 26.592 25.024 26.592 23.2C26.592 21.376 25.8 20.464 24.216 20.464C22.728 20.464 21.984 21.376 21.984 23.2C21.984 25.024 22.776 25.936 24.36 25.936ZM37.1931 31.216C35.5771 31.216 34.3211 30.664 33.4251 29.56C32.5451 28.456 32.1051 27.064 32.1051 25.384C32.1051 23.688 32.6171 22.248 33.6411 21.064C34.6651 19.88 36.0171 19.288 37.6971 19.288C40.4171 19.288 41.8411 20.96 41.9691 24.304L41.3451 24.76L34.3851 25.144C34.3851 28.104 35.6491 29.584 38.1771 29.584C39.2811 29.584 40.3611 29.312 41.4171 28.768L41.9211 29.56C41.3931 29.992 40.7051 30.376 39.8571 30.712C39.0091 31.048 38.1211 31.216 37.1931 31.216ZM34.4571 24.04L39.4251 23.608C39.5851 23.592 39.6651 23.44 39.6651 23.152C39.6651 22.448 39.4731 21.84 39.0891 21.328C38.7211 20.816 38.0891 20.56 37.1931 20.56C36.2971 20.56 35.6411 20.864 35.2251 21.472C34.8251 22.064 34.5691 22.92 34.4571 24.04ZM44.79 27.712V21.112H43.23L43.134 20.08L44.31 19.792C44.614 19.712 44.814 19.536 44.91 19.264C45.022 18.976 45.214 18.08 45.486 16.576L46.95 16.432V19.648H50.286L50.094 20.776L46.95 21.136V26.992C46.95 28.656 47.462 29.488 48.486 29.488C49.062 29.488 49.67 29.248 50.31 28.768L50.814 29.464C49.95 30.632 48.894 31.216 47.646 31.216C46.75 31.216 46.046 30.904 45.534 30.28C45.038 29.656 44.79 28.8 44.79 27.712ZM53.1806 27.712V21.112H51.6206L51.5246 20.08L52.7006 19.792C53.0046 19.712 53.2046 19.536 53.3006 19.264C53.4126 18.976 53.6046 18.08 53.8766 16.576L55.3406 16.432V19.648H58.6766L58.4846 20.776L55.3406 21.136V26.992C55.3406 28.656 55.8526 29.488 56.8766 29.488C57.4526 29.488 58.0606 29.248 58.7006 28.768L59.2046 29.464C58.3406 30.632 57.2846 31.216 56.0366 31.216C55.1406 31.216 54.4366 30.904 53.9246 30.28C53.4286 29.656 53.1806 28.8 53.1806 27.712ZM60.2273 33.808C60.6113 33.856 61.1393 33.88 61.8113 33.88C62.4993 33.88 63.0433 33.792 63.4433 33.616C63.8433 33.456 64.3233 32.584 64.8833 31L60.8993 21.448C60.7713 21.144 60.6513 20.952 60.5393 20.872C60.4433 20.792 60.1393 20.696 59.6273 20.584L59.7713 19.648H64.7153L64.8113 20.584L63.3473 20.944C63.2353 20.96 63.1793 21.024 63.1793 21.136C63.1793 21.152 63.2113 21.256 63.2753 21.448L65.7233 27.856C65.8033 28.08 65.8433 28.328 65.8433 28.6H66.0353L68.5793 22C68.6753 21.744 68.7233 21.536 68.7233 21.376C68.7233 21.2 68.6033 21.056 68.3633 20.944C68.1393 20.832 67.7313 20.712 67.1393 20.584L67.2833 19.648H71.5553L71.6512 20.584C70.9473 20.744 70.5713 20.88 70.5233 20.992L66.7313 30.4C66.4113 31.2 66.1553 31.808 65.9633 32.224C65.7713 32.656 65.5073 33.136 65.1713 33.664C64.8353 34.192 64.4833 34.6 64.1153 34.888C63.2033 35.576 62.0993 36.032 60.8033 36.256C60.3873 35.84 60.1793 35.184 60.1793 34.288C60.1793 34.192 60.1953 34.032 60.2273 33.808ZM84.2578 24.7773C84.2578 26.8086 83.8242 28.3945 82.957 29.5352C82.0898 30.668 80.8789 31.2344 79.3242 31.2344C77.9492 31.2344 76.8516 30.707 76.0312 29.6523L75.8789 31H72.832V13H76.2188V19.457C77 18.543 78.0273 18.0859 79.3008 18.0859C80.8477 18.0859 82.0586 18.6562 82.9336 19.7969C83.8164 20.9297 84.2578 22.5273 84.2578 24.5898V24.7773ZM80.8711 24.5312C80.8711 23.25 80.668 22.3164 80.2617 21.7305C79.8555 21.1367 79.25 20.8398 78.4453 20.8398C77.3672 20.8398 76.625 21.2812 76.2188 22.1641V27.168C76.6328 28.0586 77.3828 28.5039 78.4688 28.5039C79.5625 28.5039 80.2812 27.9648 80.625 26.8867C80.7891 26.3711 80.8711 25.5859 80.8711 24.5312ZM85.8281 24.543C85.8281 23.2852 86.0703 22.1641 86.5547 21.1797C87.0391 20.1953 87.7344 19.4336 88.6406 18.8945C89.5547 18.3555 90.6133 18.0859 91.8164 18.0859C93.5273 18.0859 94.9219 18.6094 96 19.6562C97.0859 20.7031 97.6914 22.125 97.8164 23.9219L97.8398 24.7891C97.8398 26.7344 97.2969 28.2969 96.2109 29.4766C95.125 30.6484 93.668 31.2344 91.8398 31.2344C90.0117 31.2344 88.5508 30.6484 87.457 29.4766C86.3711 28.3047 85.8281 26.7109 85.8281 24.6953V24.543ZM89.2148 24.7891C89.2148 25.9922 89.4414 26.9141 89.8945 27.5547C90.3477 28.1875 90.9961 28.5039 91.8398 28.5039C92.6602 28.5039 93.3008 28.1914 93.7617 27.5664C94.2227 26.9336 94.4531 25.9258 94.4531 24.543C94.4531 23.3633 94.2227 22.4492 93.7617 21.8008C93.3008 21.1523 92.6523 20.8281 91.8164 20.8281C90.9883 20.8281 90.3477 21.1523 89.8945 21.8008C89.4414 22.4414 89.2148 23.4375 89.2148 24.7891ZM107.273 31C107.117 30.6953 107.004 30.3164 106.934 29.8633C106.113 30.7773 105.047 31.2344 103.734 31.2344C102.492 31.2344 101.461 30.875 100.641 30.1562C99.8281 29.4375 99.4219 28.5312 99.4219 27.4375C99.4219 26.0938 99.918 25.0625 100.91 24.3438C101.91 23.625 103.352 23.2617 105.234 23.2539H106.793V22.5273C106.793 21.9414 106.641 21.4727 106.336 21.1211C106.039 20.7695 105.566 20.5938 104.918 20.5938C104.348 20.5938 103.898 20.7305 103.57 21.0039C103.25 21.2773 103.09 21.6523 103.09 22.1289H99.7031C99.7031 21.3945 99.9297 20.7148 100.383 20.0898C100.836 19.4648 101.477 18.9766 102.305 18.625C103.133 18.2656 104.062 18.0859 105.094 18.0859C106.656 18.0859 107.895 18.4805 108.809 19.2695C109.73 20.0508 110.191 21.1523 110.191 22.5742V28.0703C110.199 29.2734 110.367 30.1836 110.695 30.8008V31H107.273ZM104.473 28.6445C104.973 28.6445 105.434 28.5352 105.855 28.3164C106.277 28.0898 106.59 27.7891 106.793 27.4141V25.2344H105.527C103.832 25.2344 102.93 25.8203 102.82 26.9922L102.809 27.1914C102.809 27.6133 102.957 27.9609 103.254 28.2344C103.551 28.5078 103.957 28.6445 104.473 28.6445ZM119.918 21.4961C119.457 21.4336 119.051 21.4023 118.699 21.4023C117.418 21.4023 116.578 21.8359 116.18 22.7031V31H112.793V18.3203H115.992L116.086 19.832C116.766 18.668 117.707 18.0859 118.91 18.0859C119.285 18.0859 119.637 18.1367 119.965 18.2383L119.918 21.4961ZM120.797 24.5664C120.797 22.5898 121.238 21.0156 122.121 19.8438C123.012 18.6719 124.227 18.0859 125.766 18.0859C127 18.0859 128.02 18.5469 128.824 19.4688V13H132.223V31H129.164L129 29.6523C128.156 30.707 127.07 31.2344 125.742 31.2344C124.25 31.2344 123.051 30.6484 122.145 29.4766C121.246 28.2969 120.797 26.6602 120.797 24.5664ZM124.184 24.8125C124.184 26 124.391 26.9102 124.805 27.543C125.219 28.1758 125.82 28.4922 126.609 28.4922C127.656 28.4922 128.395 28.0508 128.824 27.168V22.1641C128.402 21.2812 127.672 20.8398 126.633 20.8398C125 20.8398 124.184 22.1641 124.184 24.8125ZM141.715 27.4961C141.715 27.082 141.508 26.7578 141.094 26.5234C140.688 26.2812 140.031 26.0664 139.125 25.8789C136.109 25.2461 134.602 23.9648 134.602 22.0352C134.602 20.9102 135.066 19.9727 135.996 19.2227C136.934 18.4648 138.156 18.0859 139.664 18.0859C141.273 18.0859 142.559 18.4648 143.52 19.2227C144.488 19.9805 144.973 20.9648 144.973 22.1758H141.586C141.586 21.6914 141.43 21.293 141.117 20.9805C140.805 20.6602 140.316 20.5 139.652 20.5C139.082 20.5 138.641 20.6289 138.328 20.8867C138.016 21.1445 137.859 21.4727 137.859 21.8711C137.859 22.2461 138.035 22.5508 138.387 22.7852C138.746 23.0117 139.348 23.2109 140.191 23.3828C141.035 23.5469 141.746 23.7344 142.324 23.9453C144.113 24.6016 145.008 25.7383 145.008 27.3555C145.008 28.5117 144.512 29.4492 143.52 30.168C142.527 30.8789 141.246 31.2344 139.676 31.2344C138.613 31.2344 137.668 31.0469 136.84 30.6719C136.02 30.2891 135.375 29.7695 134.906 29.1133C134.438 28.4492 134.203 27.7344 134.203 26.9688H137.414C137.445 27.5703 137.668 28.0312 138.082 28.3516C138.496 28.6719 139.051 28.832 139.746 28.832C140.395 28.832 140.883 28.7109 141.211 28.4688C141.547 28.2188 141.715 27.8945 141.715 27.4961Z" fill="black"/>
</svg>
