<svg width="19" height="18" viewBox="0 0 19 18" fill="none" xmlns="http://www.w3.org/2000/svg">
<g id="save">
<path id="Vector (Stroke)" fill-rule="evenodd" clip-rule="evenodd" d="M4.25 3C4.05109 3 3.86032 3.07902 3.71967 3.21967C3.57902 3.36032 3.5 3.55109 3.5 3.75V14.25C3.5 14.4489 3.57902 14.6397 3.71967 14.7803C3.86032 14.921 4.05109 15 4.25 15H14.75C14.9489 15 15.1397 14.921 15.2803 14.7803C15.421 14.6397 15.5 14.4489 15.5 14.25V6.31066L12.1893 3H4.25ZM2.65901 2.15901C3.08097 1.73705 3.65326 1.5 4.25 1.5H12.5C12.6989 1.5 12.8897 1.57902 13.0303 1.71967L16.7803 5.46967C16.921 5.61032 17 5.80109 17 6V14.25C17 14.8467 16.7629 15.419 16.341 15.841C15.919 16.2629 15.3467 16.5 14.75 16.5H4.25C3.65326 16.5 3.08097 16.2629 2.65901 15.841C2.23705 15.419 2 14.8467 2 14.25V3.75C2 3.15326 2.23705 2.58097 2.65901 2.15901Z" fill="#BDBDBD"/>
<path id="Vector (Stroke)_2" fill-rule="evenodd" clip-rule="evenodd" d="M5 9.75C5 9.33579 5.33579 9 5.75 9H13.25C13.6642 9 14 9.33579 14 9.75V15.75C14 16.1642 13.6642 16.5 13.25 16.5C12.8358 16.5 12.5 16.1642 12.5 15.75V10.5H6.5V15.75C6.5 16.1642 6.16421 16.5 5.75 16.5C5.33579 16.5 5 16.1642 5 15.75V9.75Z" fill="#BDBDBD"/>
<path id="Vector (Stroke)_3" fill-rule="evenodd" clip-rule="evenodd" d="M5.75 1.5C6.16421 1.5 6.5 1.83579 6.5 2.25V5.25H11.75C12.1642 5.25 12.5 5.58579 12.5 6C12.5 6.41421 12.1642 6.75 11.75 6.75H5.75C5.33579 6.75 5 6.41421 5 6V2.25C5 1.83579 5.33579 1.5 5.75 1.5Z" fill="#BDBDBD"/>
</g>
</svg>
