<svg width="557" height="27" viewBox="0 0 557 27" fill="none" xmlns="http://www.w3.org/2000/svg">
<path d="M13.1294 3.19L12.1154 5.504C11.4047 5.244 10.6941 5.036 9.98339 4.88C9.29006 4.724 8.62272 4.646 7.98139 4.646C6.88939 4.646 6.01406 4.87133 5.35539 5.322C4.71406 5.77267 4.39339 6.34467 4.39339 7.038C4.39339 7.62733 4.62739 8.104 5.09539 8.468C5.56339 8.81467 6.14406 9.13533 6.83739 9.43C7.53072 9.70733 8.28472 9.99333 9.09939 10.288C9.91406 10.5653 10.6681 10.9293 11.3614 11.38C12.0547 11.8307 12.6354 12.4027 13.1034 13.096C13.5714 13.772 13.8054 14.6473 13.8054 15.722C13.8054 16.554 13.6494 17.308 13.3374 17.984C13.0427 18.6427 12.5921 19.2147 11.9854 19.7C11.3961 20.1853 10.6507 20.558 9.74939 20.818C8.86539 21.078 7.82539 21.208 6.62939 21.208C5.86672 21.208 5.17339 21.156 4.54939 21.052C3.94272 20.948 3.38806 20.818 2.88539 20.662C2.40006 20.4887 1.96672 20.3067 1.58539 20.116C1.22139 19.9253 0.909391 19.752 0.649391 19.596L1.89739 17.126C2.59072 17.5247 3.36206 17.8453 4.21139 18.088C5.06072 18.3307 5.83206 18.452 6.52539 18.452C6.87206 18.452 7.29672 18.4087 7.79939 18.322C8.31939 18.2353 8.81339 18.088 9.28139 17.88C9.74939 17.6547 10.1481 17.36 10.4774 16.996C10.8241 16.632 10.9974 16.1727 10.9974 15.618C10.9974 15.1153 10.8587 14.6907 10.5814 14.344C10.3214 13.98 9.96606 13.668 9.51539 13.408C9.08206 13.1307 8.57939 12.888 8.00739 12.68C7.45272 12.4547 6.88072 12.2293 6.29139 12.004C5.70206 11.7613 5.12139 11.51 4.54939 11.25C3.99472 10.99 3.49206 10.678 3.04139 10.314C2.60806 9.93267 2.25272 9.49933 1.97539 9.014C1.71539 8.51133 1.58539 7.91333 1.58539 7.22C1.58539 6.57867 1.71539 5.946 1.97539 5.322C2.23539 4.698 2.62539 4.14333 3.14539 3.658C3.66539 3.17267 4.30672 2.78267 5.06939 2.488C5.84939 2.19333 6.75072 2.046 7.77339 2.046C8.39739 2.046 9.00406 2.098 9.59339 2.202C10.2001 2.306 10.7461 2.42733 11.2314 2.566C11.7167 2.68733 12.1241 2.80867 12.4534 2.93C12.8001 3.05133 13.0254 3.138 13.1294 3.19ZM25.3636 19.726C24.8436 20.194 24.2109 20.5667 23.4656 20.844C22.7203 21.1213 21.9576 21.26 21.1776 21.26C20.3803 21.26 19.6263 21.1127 18.9156 20.818C18.2223 20.506 17.6156 20.0987 17.0956 19.596C16.5756 19.076 16.1596 18.4693 15.8476 17.776C15.5529 17.0827 15.4056 16.346 15.4056 15.566C15.4056 14.786 15.5529 14.0493 15.8476 13.356C16.1596 12.6627 16.5756 12.056 17.0956 11.536C17.6156 11.016 18.2136 10.6087 18.8896 10.314C19.5829 10.002 20.3196 9.846 21.0996 9.846C22.3303 9.846 23.3963 10.2187 24.2976 10.964C25.2163 11.692 25.8749 12.654 26.2736 13.85C25.7363 14.0407 25.1209 14.2747 24.4276 14.552C23.7343 14.8293 23.0149 15.124 22.2696 15.436C21.5243 15.7307 20.7789 16.0253 20.0336 16.32C19.2883 16.6147 18.5949 16.8833 17.9536 17.126C18.2483 17.7153 18.6729 18.192 19.2276 18.556C19.7996 18.9027 20.4323 19.076 21.1256 19.076C21.5936 19.076 22.0616 18.9893 22.5296 18.816C23.0149 18.6427 23.4049 18.4087 23.6996 18.114L25.3636 19.726ZM23.4916 13.33C23.2836 12.8967 22.9543 12.576 22.5036 12.368C22.0529 12.1427 21.5936 12.03 21.1256 12.03C20.6229 12.03 20.1549 12.1253 19.7216 12.316C19.3056 12.5067 18.9416 12.7667 18.6296 13.096C18.3176 13.408 18.0663 13.772 17.8756 14.188C17.7023 14.604 17.6156 15.0287 17.6156 15.462C17.6156 15.5487 17.6156 15.6093 17.6156 15.644C17.6329 15.6787 17.6416 15.7047 17.6416 15.722C18.0923 15.5487 18.5776 15.358 19.0976 15.15C19.6349 14.9247 20.1636 14.708 20.6836 14.5C21.2036 14.2747 21.7063 14.0667 22.1916 13.876C22.6769 13.668 23.1103 13.486 23.4916 13.33ZM27.4408 15.67C27.4408 14.8727 27.5881 14.1273 27.8828 13.434C28.1948 12.7233 28.6108 12.108 29.1308 11.588C29.6508 11.0507 30.2488 10.626 30.9248 10.314C31.6181 10.002 32.3548 9.846 33.1348 9.846C33.6548 9.846 34.1314 9.91533 34.5648 10.054C34.9981 10.1753 35.3708 10.3313 35.6828 10.522C35.9948 10.7127 36.2461 10.912 36.4368 11.12C36.6274 11.328 36.7574 11.51 36.8268 11.666L36.9308 10.132H39.0628V21H36.8268V19.622C36.7401 19.7607 36.6014 19.9253 36.4108 20.116C36.2201 20.3067 35.9688 20.4887 35.6568 20.662C35.3621 20.818 35.0068 20.9567 34.5908 21.078C34.1748 21.1993 33.6981 21.26 33.1608 21.26C32.3288 21.26 31.5574 21.1127 30.8468 20.818C30.1534 20.506 29.5554 20.0987 29.0528 19.596C28.5501 19.076 28.1514 18.478 27.8568 17.802C27.5794 17.126 27.4408 16.4153 27.4408 15.67ZM29.6768 15.54C29.6768 16.0427 29.7634 16.5107 29.9368 16.944C30.1274 17.3773 30.3788 17.75 30.6908 18.062C31.0028 18.374 31.3754 18.6253 31.8088 18.816C32.2421 18.9893 32.7188 19.076 33.2388 19.076C33.7588 19.076 34.2354 18.9893 34.6688 18.816C35.1194 18.6253 35.5008 18.374 35.8128 18.062C36.1421 17.7327 36.3934 17.36 36.5668 16.944C36.7401 16.5107 36.8268 16.0427 36.8268 15.54C36.8268 15.0373 36.7401 14.578 36.5668 14.162C36.3934 13.7287 36.1421 13.356 35.8128 13.044C35.5008 12.732 35.1194 12.4893 34.6688 12.316C34.2354 12.1253 33.7588 12.03 33.2388 12.03C32.7188 12.03 32.2421 12.1253 31.8088 12.316C31.3754 12.4893 31.0028 12.732 30.6908 13.044C30.3788 13.356 30.1274 13.7287 29.9368 14.162C29.7634 14.578 29.6768 15.0373 29.6768 15.54ZM48.165 12.706C47.6797 12.706 47.2117 12.7753 46.761 12.914C46.3103 13.0353 45.903 13.226 45.539 13.486C45.1923 13.746 44.915 14.0753 44.707 14.474C44.499 14.8553 44.395 15.2973 44.395 15.8V21H42.185V10.132H44.135C44.1697 10.6693 44.1957 11.1633 44.213 11.614C44.2477 12.0473 44.2823 12.4807 44.317 12.914C44.5423 12.446 44.837 12.0213 45.201 11.64C45.565 11.2587 45.955 10.938 46.371 10.678C46.787 10.418 47.1943 10.2187 47.593 10.08C47.9917 9.924 48.347 9.846 48.659 9.846L48.165 12.706ZM57.3361 18.322C57.5788 18.6167 57.8041 18.9027 58.0121 19.18C58.2374 19.44 58.4628 19.7173 58.6881 20.012C58.2028 20.3933 57.6568 20.6967 57.0501 20.922C56.4434 21.1473 55.7848 21.26 55.0741 21.26C54.2768 21.26 53.5228 21.1127 52.8121 20.818C52.1188 20.506 51.5121 20.09 50.9921 19.57C50.4721 19.05 50.0561 18.4433 49.7441 17.75C49.4494 17.0567 49.3021 16.32 49.3021 15.54C49.3021 14.76 49.4494 14.0233 49.7441 13.33C50.0561 12.6367 50.4721 12.0387 50.9921 11.536C51.5121 11.016 52.1188 10.6087 52.8121 10.314C53.5228 10.002 54.2768 9.846 55.0741 9.846C55.8021 9.846 56.4694 9.95867 57.0761 10.184C57.7001 10.4093 58.2634 10.7127 58.7661 11.094L57.3361 12.784C57.0414 12.5413 56.7034 12.3593 56.3221 12.238C55.9408 12.0993 55.5248 12.03 55.0741 12.03C54.5541 12.03 54.0774 12.1253 53.6441 12.316C53.2108 12.4893 52.8294 12.732 52.5001 13.044C52.1881 13.356 51.9454 13.7287 51.7721 14.162C51.5988 14.578 51.5121 15.0373 51.5121 15.54C51.5121 16.0427 51.5988 16.5107 51.7721 16.944C51.9454 17.36 52.1881 17.7327 52.5001 18.062C52.8294 18.374 53.2108 18.6253 53.6441 18.816C54.0774 18.9893 54.5541 19.076 55.0741 19.076C55.5248 19.076 55.9408 19.0153 56.3221 18.894C56.7034 18.7553 57.0414 18.5647 57.3361 18.322ZM60.8725 0.798H63.0825V12.758C63.4638 11.8913 64.0012 11.198 64.6945 10.678C65.3878 10.1407 66.2805 9.86333 67.3725 9.846C68.4818 9.82867 69.3658 10.1233 70.0245 10.73C70.7005 11.3367 71.0558 12.1253 71.0905 13.096V21H68.8545V14.11C68.8198 13.5553 68.6292 13.0873 68.2825 12.706C67.9358 12.3073 67.3898 12.0907 66.6445 12.056C66.1245 12.056 65.6478 12.1513 65.2145 12.342C64.7812 12.5153 64.4085 12.758 64.0965 13.07C63.7845 13.382 63.5332 13.7547 63.3425 14.188C63.1692 14.6213 63.0825 15.098 63.0825 15.618V21H60.8725V0.798ZM77.091 18.738L74.803 24.146H72.671C73.0177 23.2447 73.3557 22.3433 73.685 21.442C74.0143 20.558 74.3523 19.6567 74.699 18.738H77.091ZM85.6367 15.592C85.6367 14.7773 85.784 14.0233 86.0787 13.33C86.3734 12.6193 86.772 12.0127 87.2747 11.51C87.7774 10.99 88.3667 10.5827 89.0427 10.288C89.7187 9.99333 90.438 9.846 91.2007 9.846C91.79 9.846 92.31 9.924 92.7607 10.08C93.2287 10.236 93.6187 10.418 93.9307 10.626C94.2427 10.834 94.4854 11.042 94.6587 11.25C94.8494 11.4407 94.9707 11.5793 95.0227 11.666C95.0227 11.4233 95.04 11.172 95.0747 10.912C95.1094 10.6347 95.1267 10.3747 95.1267 10.132H97.2587V20.506C97.2587 22.3087 96.73 23.7127 95.6727 24.718C94.6154 25.7233 93.1854 26.226 91.3827 26.226C90.7587 26.226 90.1954 26.1567 89.6927 26.018C89.2074 25.8967 88.7567 25.732 88.3407 25.524C87.942 25.316 87.5694 25.0733 87.2227 24.796C86.8934 24.5187 86.564 24.2327 86.2347 23.938L87.6647 22.43C88.202 22.9327 88.748 23.3313 89.3027 23.626C89.8747 23.9207 90.5507 24.068 91.3307 24.068C92.492 24.068 93.3934 23.7907 94.0347 23.236C94.676 22.6813 95.0054 21.91 95.0227 20.922V20.168C95.0227 20.0293 95.04 19.882 95.0747 19.726C95.1094 19.5527 95.1267 19.4227 95.1267 19.336C94.9707 19.544 94.7714 19.7693 94.5287 20.012C94.3034 20.2373 94.0347 20.4453 93.7227 20.636C93.4107 20.8093 93.0467 20.9567 92.6307 21.078C92.2147 21.1993 91.7467 21.26 91.2267 21.26C90.412 21.26 89.6667 21.1127 88.9907 20.818C88.3147 20.5233 87.7254 20.1247 87.2227 19.622C86.72 19.102 86.33 18.504 86.0527 17.828C85.7754 17.1347 85.6367 16.3893 85.6367 15.592ZM87.8727 15.54C87.8727 16.0427 87.9594 16.5107 88.1327 16.944C88.3234 17.3773 88.5747 17.75 88.8867 18.062C89.1987 18.374 89.5714 18.6253 90.0047 18.816C90.438 18.9893 90.9147 19.076 91.4347 19.076C91.9547 19.076 92.4314 18.9893 92.8647 18.816C93.3154 18.6253 93.6967 18.374 94.0087 18.062C94.338 17.7327 94.5894 17.36 94.7627 16.944C94.936 16.5107 95.0227 16.0427 95.0227 15.54C95.0227 15.0373 94.936 14.578 94.7627 14.162C94.5894 13.7287 94.338 13.356 94.0087 13.044C93.6967 12.732 93.3154 12.4893 92.8647 12.316C92.4314 12.1253 91.9547 12.03 91.4347 12.03C90.9147 12.03 90.438 12.1253 90.0047 12.316C89.5714 12.4893 89.1987 12.732 88.8867 13.044C88.5747 13.356 88.3234 13.7287 88.1327 14.162C87.9594 14.578 87.8727 15.0373 87.8727 15.54ZM106.36 12.706C105.875 12.706 105.407 12.7753 104.956 12.914C104.506 13.0353 104.098 13.226 103.734 13.486C103.388 13.746 103.11 14.0753 102.902 14.474C102.694 14.8553 102.59 15.2973 102.59 15.8V21H100.38V10.132H102.33C102.365 10.6693 102.391 11.1633 102.408 11.614C102.443 12.0473 102.478 12.4807 102.512 12.914C102.738 12.446 103.032 12.0213 103.396 11.64C103.76 11.2587 104.15 10.938 104.566 10.678C104.982 10.418 105.39 10.2187 105.788 10.08C106.187 9.924 106.542 9.846 106.854 9.846L106.36 12.706ZM107.497 15.54C107.497 14.76 107.645 14.0233 107.939 13.33C108.251 12.6367 108.667 12.0387 109.187 11.536C109.707 11.016 110.314 10.6087 111.007 10.314C111.718 10.002 112.481 9.846 113.295 9.846C114.11 9.846 114.864 10.002 115.557 10.314C116.268 10.6087 116.875 11.016 117.377 11.536C117.897 12.0387 118.296 12.6367 118.573 13.33C118.868 14.0233 119.015 14.76 119.015 15.54C119.015 16.32 118.868 17.0567 118.573 17.75C118.296 18.4433 117.897 19.05 117.377 19.57C116.875 20.09 116.268 20.506 115.557 20.818C114.864 21.1127 114.101 21.26 113.269 21.26C112.472 21.26 111.718 21.1213 111.007 20.844C110.314 20.5667 109.707 20.1767 109.187 19.674C108.667 19.1713 108.251 18.5733 107.939 17.88C107.645 17.1693 107.497 16.3893 107.497 15.54ZM109.707 15.566C109.707 16.0513 109.794 16.5107 109.967 16.944C110.158 17.36 110.409 17.7327 110.721 18.062C111.051 18.374 111.423 18.6253 111.839 18.816C112.273 18.9893 112.732 19.076 113.217 19.076C113.703 19.076 114.162 18.9893 114.595 18.816C115.029 18.6253 115.401 18.374 115.713 18.062C116.043 17.7327 116.303 17.36 116.493 16.944C116.684 16.5107 116.779 16.0513 116.779 15.566C116.779 15.0807 116.684 14.6213 116.493 14.188C116.303 13.7547 116.043 13.382 115.713 13.07C115.401 12.7407 115.029 12.4893 114.595 12.316C114.162 12.1253 113.703 12.03 113.217 12.03C112.732 12.03 112.273 12.1253 111.839 12.316C111.423 12.4893 111.051 12.7407 110.721 13.07C110.409 13.382 110.158 13.7547 109.967 14.188C109.794 14.6213 109.707 15.0807 109.707 15.566ZM131.492 21.234H129.62L129.36 18.218C128.962 19.102 128.398 19.83 127.67 20.402C126.96 20.974 126.05 21.26 124.94 21.26C123.831 21.26 122.947 20.9653 122.288 20.376C121.647 19.7693 121.309 18.9807 121.274 18.01V10.132H123.484V17.022C123.519 17.5593 123.71 18.0187 124.056 18.4C124.42 18.7813 124.975 18.998 125.72 19.05C126.24 19.05 126.717 18.9633 127.15 18.79C127.584 18.5993 127.956 18.348 128.268 18.036C128.58 17.724 128.823 17.3513 128.996 16.918C129.17 16.4847 129.256 16.008 129.256 15.488V10.132H131.492V21.234ZM143.811 15.54C143.811 15.0373 143.733 14.578 143.577 14.162C143.421 13.7287 143.196 13.356 142.901 13.044C142.606 12.732 142.251 12.4893 141.835 12.316C141.419 12.1253 140.951 12.03 140.431 12.03C139.911 12.03 139.426 12.1253 138.975 12.316C138.542 12.4893 138.169 12.732 137.857 13.044C137.545 13.356 137.294 13.7287 137.103 14.162C136.93 14.578 136.843 15.0373 136.843 15.54C136.843 16.0427 136.93 16.5107 137.103 16.944C137.294 17.3773 137.545 17.75 137.857 18.062C138.169 18.374 138.542 18.6253 138.975 18.816C139.426 18.9893 139.911 19.076 140.431 19.076C140.951 19.076 141.419 18.9893 141.835 18.816C142.251 18.6253 142.606 18.374 142.901 18.062C143.196 17.7327 143.421 17.36 143.577 16.944C143.733 16.5107 143.811 16.0427 143.811 15.54ZM146.229 15.592C146.229 16.4067 146.09 17.1607 145.813 17.854C145.536 18.5473 145.146 19.1453 144.643 19.648C144.14 20.1507 143.534 20.5493 142.823 20.844C142.13 21.1213 141.367 21.26 140.535 21.26C140.102 21.26 139.686 21.208 139.287 21.104C138.906 21.0173 138.55 20.896 138.221 20.74C137.892 20.5667 137.606 20.3847 137.363 20.194C137.12 19.986 136.938 19.778 136.817 19.57C136.817 19.6567 136.817 19.752 136.817 19.856C136.834 19.9427 136.843 20.0293 136.843 20.116V26.226H134.607V10.132H136.765C136.765 10.34 136.774 10.6 136.791 10.912C136.826 11.2067 136.843 11.4753 136.843 11.718C136.982 11.51 137.164 11.302 137.389 11.094C137.632 10.8687 137.909 10.6693 138.221 10.496C138.55 10.3053 138.914 10.1493 139.313 10.028C139.712 9.90667 140.154 9.846 140.639 9.846C141.471 9.846 142.225 9.98467 142.901 10.262C143.594 10.522 144.184 10.9033 144.669 11.406C145.172 11.8913 145.553 12.4893 145.813 13.2C146.09 13.9107 146.229 14.708 146.229 15.592ZM153.886 15.67C153.886 14.8727 154.033 14.1273 154.328 13.434C154.64 12.7233 155.056 12.108 155.576 11.588C156.096 11.0507 156.694 10.626 157.37 10.314C158.063 10.002 158.8 9.846 159.58 9.846C160.1 9.846 160.577 9.91533 161.01 10.054C161.443 10.1753 161.816 10.3313 162.128 10.522C162.44 10.7127 162.691 10.912 162.882 11.12C163.073 11.328 163.203 11.51 163.272 11.666L163.376 10.132H165.508V21H163.272V19.622C163.185 19.7607 163.047 19.9253 162.856 20.116C162.665 20.3067 162.414 20.4887 162.102 20.662C161.807 20.818 161.452 20.9567 161.036 21.078C160.62 21.1993 160.143 21.26 159.606 21.26C158.774 21.26 158.003 21.1127 157.292 20.818C156.599 20.506 156.001 20.0987 155.498 19.596C154.995 19.076 154.597 18.478 154.302 17.802C154.025 17.126 153.886 16.4153 153.886 15.67ZM156.122 15.54C156.122 16.0427 156.209 16.5107 156.382 16.944C156.573 17.3773 156.824 17.75 157.136 18.062C157.448 18.374 157.821 18.6253 158.254 18.816C158.687 18.9893 159.164 19.076 159.684 19.076C160.204 19.076 160.681 18.9893 161.114 18.816C161.565 18.6253 161.946 18.374 162.258 18.062C162.587 17.7327 162.839 17.36 163.012 16.944C163.185 16.5107 163.272 16.0427 163.272 15.54C163.272 15.0373 163.185 14.578 163.012 14.162C162.839 13.7287 162.587 13.356 162.258 13.044C161.946 12.732 161.565 12.4893 161.114 12.316C160.681 12.1253 160.204 12.03 159.684 12.03C159.164 12.03 158.687 12.1253 158.254 12.316C157.821 12.4893 157.448 12.732 157.136 13.044C156.824 13.356 156.573 13.7287 156.382 14.162C156.209 14.578 156.122 15.0373 156.122 15.54ZM168.63 10.132H170.58C170.615 10.6693 170.641 11.1633 170.658 11.614C170.693 12.0473 170.728 12.4807 170.762 12.914C171.161 11.978 171.724 11.2327 172.452 10.678C173.198 10.1233 174.108 9.846 175.182 9.846C176.274 9.846 177.15 10.1493 177.808 10.756C178.467 11.3627 178.814 12.1427 178.848 13.096V21H176.612V14.11C176.578 13.5553 176.387 13.0873 176.04 12.706C175.694 12.3073 175.148 12.0907 174.402 12.056C173.882 12.056 173.406 12.1513 172.972 12.342C172.539 12.5153 172.166 12.758 171.854 13.07C171.542 13.382 171.291 13.7547 171.1 14.188C170.927 14.6213 170.84 15.098 170.84 15.618V21H168.63V10.132ZM181.131 15.566C181.131 14.7167 181.269 13.9453 181.547 13.252C181.841 12.5413 182.24 11.9347 182.743 11.432C183.245 10.9293 183.835 10.5393 184.511 10.262C185.204 9.98467 185.949 9.846 186.747 9.846C187.284 9.846 187.761 9.91533 188.177 10.054C188.61 10.1753 188.974 10.3313 189.269 10.522C189.581 10.6953 189.841 10.8947 190.049 11.12C190.257 11.3453 190.413 11.5447 190.517 11.718V0.798H192.753V21H190.517V20.194C190.517 20.09 190.525 19.9773 190.543 19.856C190.56 19.7173 190.569 19.6047 190.569 19.518C190.395 19.726 190.187 19.934 189.945 20.142C189.719 20.3327 189.451 20.5147 189.139 20.688C188.827 20.8613 188.463 21 188.047 21.104C187.648 21.208 187.189 21.26 186.669 21.26C185.802 21.26 185.022 21.1127 184.329 20.818C183.653 20.506 183.072 20.0987 182.587 19.596C182.119 19.076 181.755 18.4693 181.495 17.776C181.252 17.0827 181.131 16.346 181.131 15.566ZM183.367 15.54C183.367 16.0427 183.453 16.5107 183.627 16.944C183.817 17.3773 184.069 17.75 184.381 18.062C184.693 18.374 185.065 18.6253 185.499 18.816C185.932 18.9893 186.409 19.076 186.929 19.076C187.449 19.076 187.925 18.9893 188.359 18.816C188.809 18.6253 189.191 18.374 189.503 18.062C189.832 17.7327 190.083 17.36 190.257 16.944C190.43 16.5107 190.517 16.0427 190.517 15.54C190.517 15.0373 190.43 14.578 190.257 14.162C190.083 13.7287 189.832 13.356 189.503 13.044C189.191 12.732 188.809 12.4893 188.359 12.316C187.925 12.1253 187.449 12.03 186.929 12.03C186.409 12.03 185.932 12.1253 185.499 12.316C185.065 12.4893 184.693 12.732 184.381 13.044C184.069 13.356 183.817 13.7287 183.627 14.162C183.453 14.578 183.367 15.0373 183.367 15.54ZM211.071 15.54C211.071 15.0373 210.993 14.578 210.837 14.162C210.681 13.7287 210.455 13.356 210.161 13.044C209.866 12.732 209.511 12.4893 209.095 12.316C208.679 12.1253 208.211 12.03 207.691 12.03C207.171 12.03 206.685 12.1253 206.235 12.316C205.801 12.4893 205.429 12.732 205.117 13.044C204.805 13.356 204.553 13.7287 204.363 14.162C204.189 14.578 204.103 15.0373 204.103 15.54C204.103 16.0427 204.189 16.5107 204.363 16.944C204.553 17.3773 204.805 17.75 205.117 18.062C205.429 18.374 205.801 18.6253 206.235 18.816C206.685 18.9893 207.171 19.076 207.691 19.076C208.211 19.076 208.679 18.9893 209.095 18.816C209.511 18.6253 209.866 18.374 210.161 18.062C210.455 17.7327 210.681 17.36 210.837 16.944C210.993 16.5107 211.071 16.0427 211.071 15.54ZM213.489 15.592C213.489 16.4067 213.35 17.1607 213.073 17.854C212.795 18.5473 212.405 19.1453 211.903 19.648C211.4 20.1507 210.793 20.5493 210.083 20.844C209.389 21.1213 208.627 21.26 207.795 21.26C207.361 21.26 206.945 21.208 206.547 21.104C206.165 21.0173 205.81 20.896 205.481 20.74C205.151 20.5667 204.865 20.3847 204.623 20.194C204.38 19.986 204.198 19.778 204.077 19.57C204.077 19.6567 204.077 19.752 204.077 19.856C204.094 19.9427 204.103 20.0293 204.103 20.116V26.226H201.867V10.132H204.025C204.025 10.34 204.033 10.6 204.051 10.912C204.085 11.2067 204.103 11.4753 204.103 11.718C204.241 11.51 204.423 11.302 204.649 11.094C204.891 10.8687 205.169 10.6693 205.481 10.496C205.81 10.3053 206.174 10.1493 206.573 10.028C206.971 9.90667 207.413 9.846 207.899 9.846C208.731 9.846 209.485 9.98467 210.161 10.262C210.854 10.522 211.443 10.9033 211.929 11.406C212.431 11.8913 212.813 12.4893 213.073 13.2C213.35 13.9107 213.489 14.708 213.489 15.592ZM221.888 12.706C221.402 12.706 220.934 12.7753 220.484 12.914C220.033 13.0353 219.626 13.226 219.262 13.486C218.915 13.746 218.638 14.0753 218.43 14.474C218.222 14.8553 218.118 15.2973 218.118 15.8V21H215.908V10.132H217.858C217.892 10.6693 217.918 11.1633 217.936 11.614C217.97 12.0473 218.005 12.4807 218.04 12.914C218.265 12.446 218.56 12.0213 218.924 11.64C219.288 11.2587 219.678 10.938 220.094 10.678C220.51 10.418 220.917 10.2187 221.316 10.08C221.714 9.924 222.07 9.846 222.382 9.846L221.888 12.706ZM232.983 19.726C232.463 20.194 231.83 20.5667 231.085 20.844C230.339 21.1213 229.577 21.26 228.797 21.26C227.999 21.26 227.245 21.1127 226.535 20.818C225.841 20.506 225.235 20.0987 224.715 19.596C224.195 19.076 223.779 18.4693 223.467 17.776C223.172 17.0827 223.025 16.346 223.025 15.566C223.025 14.786 223.172 14.0493 223.467 13.356C223.779 12.6627 224.195 12.056 224.715 11.536C225.235 11.016 225.833 10.6087 226.509 10.314C227.202 10.002 227.939 9.846 228.719 9.846C229.949 9.846 231.015 10.2187 231.917 10.964C232.835 11.692 233.494 12.654 233.893 13.85C233.355 14.0407 232.74 14.2747 232.047 14.552C231.353 14.8293 230.634 15.124 229.889 15.436C229.143 15.7307 228.398 16.0253 227.653 16.32C226.907 16.6147 226.214 16.8833 225.573 17.126C225.867 17.7153 226.292 18.192 226.847 18.556C227.419 18.9027 228.051 19.076 228.745 19.076C229.213 19.076 229.681 18.9893 230.149 18.816C230.634 18.6427 231.024 18.4087 231.319 18.114L232.983 19.726ZM231.111 13.33C230.903 12.8967 230.573 12.576 230.123 12.368C229.672 12.1427 229.213 12.03 228.745 12.03C228.242 12.03 227.774 12.1253 227.341 12.316C226.925 12.5067 226.561 12.7667 226.249 13.096C225.937 13.408 225.685 13.772 225.495 14.188C225.321 14.604 225.235 15.0287 225.235 15.462C225.235 15.5487 225.235 15.6093 225.235 15.644C225.252 15.6787 225.261 15.7047 225.261 15.722C225.711 15.5487 226.197 15.358 226.717 15.15C227.254 14.9247 227.783 14.708 228.303 14.5C228.823 14.2747 229.325 14.0667 229.811 13.876C230.296 13.668 230.729 13.486 231.111 13.33ZM239.9 21.65C238.877 19.7087 237.915 17.7933 237.014 15.904C236.13 13.9973 235.194 12.0733 234.206 10.132H236.624C237.248 11.3627 237.742 12.368 238.106 13.148C238.487 13.928 238.79 14.578 239.016 15.098C239.241 15.618 239.414 16.06 239.536 16.424C239.657 16.7707 239.778 17.126 239.9 17.49C240.038 17.126 240.168 16.7707 240.29 16.424C240.428 16.06 240.602 15.618 240.81 15.098C241.035 14.578 241.33 13.928 241.694 13.148C242.075 12.368 242.578 11.3627 243.202 10.132H245.62C244.632 12.0733 243.678 13.9973 242.76 15.904C241.841 17.7933 240.888 19.7087 239.9 21.65ZM246.954 5.972C246.954 5.556 247.101 5.20933 247.396 4.932C247.708 4.65467 248.037 4.516 248.384 4.516C248.73 4.516 249.051 4.65467 249.346 4.932C249.64 5.20933 249.788 5.556 249.788 5.972C249.788 6.388 249.64 6.73467 249.346 7.012C249.051 7.272 248.73 7.402 248.384 7.402C248.037 7.402 247.708 7.272 247.396 7.012C247.101 6.73467 246.954 6.388 246.954 5.972ZM249.45 21H247.24V10.132H249.45V21ZM261.776 19.726C261.256 20.194 260.623 20.5667 259.878 20.844C259.132 21.1213 258.37 21.26 257.59 21.26C256.792 21.26 256.038 21.1127 255.328 20.818C254.634 20.506 254.028 20.0987 253.508 19.596C252.988 19.076 252.572 18.4693 252.26 17.776C251.965 17.0827 251.818 16.346 251.818 15.566C251.818 14.786 251.965 14.0493 252.26 13.356C252.572 12.6627 252.988 12.056 253.508 11.536C254.028 11.016 254.626 10.6087 255.302 10.314C255.995 10.002 256.732 9.846 257.512 9.846C258.742 9.846 259.808 10.2187 260.71 10.964C261.628 11.692 262.287 12.654 262.686 13.85C262.148 14.0407 261.533 14.2747 260.84 14.552C260.146 14.8293 259.427 15.124 258.682 15.436C257.936 15.7307 257.191 16.0253 256.446 16.32C255.7 16.6147 255.007 16.8833 254.366 17.126C254.66 17.7153 255.085 18.192 255.64 18.556C256.212 18.9027 256.844 19.076 257.538 19.076C258.006 19.076 258.474 18.9893 258.942 18.816C259.427 18.6427 259.817 18.4087 260.112 18.114L261.776 19.726ZM259.904 13.33C259.696 12.8967 259.366 12.576 258.916 12.368C258.465 12.1427 258.006 12.03 257.538 12.03C257.035 12.03 256.567 12.1253 256.134 12.316C255.718 12.5067 255.354 12.7667 255.042 13.096C254.73 13.408 254.478 13.772 254.288 14.188C254.114 14.604 254.028 15.0287 254.028 15.462C254.028 15.5487 254.028 15.6093 254.028 15.644C254.045 15.6787 254.054 15.7047 254.054 15.722C254.504 15.5487 254.99 15.358 255.51 15.15C256.047 14.9247 256.576 14.708 257.096 14.5C257.616 14.2747 258.118 14.0667 258.604 13.876C259.089 13.668 259.522 13.486 259.904 13.33ZM270.408 11.874L269.602 10.132H271.526C272.029 11.224 272.453 12.1687 272.8 12.966C273.147 13.746 273.441 14.4307 273.684 15.02C273.927 15.592 274.126 16.0773 274.282 16.476C274.438 16.8747 274.568 17.2127 274.672 17.49C274.776 16.97 274.897 16.502 275.036 16.086C275.192 15.6527 275.383 15.176 275.608 14.656C275.833 14.1187 276.102 13.5033 276.414 12.81C276.743 12.0993 277.133 11.2067 277.584 10.132H279.82L274.672 21.65C274.36 21.0087 274.065 20.376 273.788 19.752C273.528 19.1107 273.268 18.478 273.008 17.854C272.765 17.23 272.505 16.606 272.228 15.982C271.968 15.358 271.682 14.7167 271.37 14.058L268.068 21.65L263.154 10.132H265.39C265.841 11.2067 266.213 12.0993 266.508 12.81C266.803 13.5207 267.045 14.136 267.236 14.656C267.444 15.176 267.609 15.6527 267.73 16.086C267.851 16.502 267.964 16.97 268.068 17.49C268.137 17.282 268.215 17.048 268.302 16.788C268.406 16.528 268.536 16.1987 268.692 15.8C268.865 15.384 269.091 14.864 269.368 14.24C269.645 13.616 269.992 12.8273 270.408 11.874ZM286.756 15.592C286.756 14.7773 286.903 14.0233 287.198 13.33C287.492 12.6193 287.891 12.0127 288.394 11.51C288.896 10.99 289.486 10.5827 290.162 10.288C290.838 9.99333 291.557 9.846 292.32 9.846C292.909 9.846 293.429 9.924 293.88 10.08C294.348 10.236 294.738 10.418 295.05 10.626C295.362 10.834 295.604 11.042 295.778 11.25C295.968 11.4407 296.09 11.5793 296.142 11.666C296.142 11.4233 296.159 11.172 296.194 10.912C296.228 10.6347 296.246 10.3747 296.246 10.132H298.378V20.506C298.378 22.3087 297.849 23.7127 296.792 24.718C295.734 25.7233 294.304 26.226 292.502 26.226C291.878 26.226 291.314 26.1567 290.812 26.018C290.326 25.8967 289.876 25.732 289.46 25.524C289.061 25.316 288.688 25.0733 288.342 24.796C288.012 24.5187 287.683 24.2327 287.354 23.938L288.784 22.43C289.321 22.9327 289.867 23.3313 290.422 23.626C290.994 23.9207 291.67 24.068 292.45 24.068C293.611 24.068 294.512 23.7907 295.154 23.236C295.795 22.6813 296.124 21.91 296.142 20.922V20.168C296.142 20.0293 296.159 19.882 296.194 19.726C296.228 19.5527 296.246 19.4227 296.246 19.336C296.09 19.544 295.89 19.7693 295.648 20.012C295.422 20.2373 295.154 20.4453 294.842 20.636C294.53 20.8093 294.166 20.9567 293.75 21.078C293.334 21.1993 292.866 21.26 292.346 21.26C291.531 21.26 290.786 21.1127 290.11 20.818C289.434 20.5233 288.844 20.1247 288.342 19.622C287.839 19.102 287.449 18.504 287.172 17.828C286.894 17.1347 286.756 16.3893 286.756 15.592ZM288.992 15.54C288.992 16.0427 289.078 16.5107 289.252 16.944C289.442 17.3773 289.694 17.75 290.006 18.062C290.318 18.374 290.69 18.6253 291.124 18.816C291.557 18.9893 292.034 19.076 292.554 19.076C293.074 19.076 293.55 18.9893 293.984 18.816C294.434 18.6253 294.816 18.374 295.128 18.062C295.457 17.7327 295.708 17.36 295.882 16.944C296.055 16.5107 296.142 16.0427 296.142 15.54C296.142 15.0373 296.055 14.578 295.882 14.162C295.708 13.7287 295.457 13.356 295.128 13.044C294.816 12.732 294.434 12.4893 293.984 12.316C293.55 12.1253 293.074 12.03 292.554 12.03C292.034 12.03 291.557 12.1253 291.124 12.316C290.69 12.4893 290.318 12.732 290.006 13.044C289.694 13.356 289.442 13.7287 289.252 14.162C289.078 14.578 288.992 15.0373 288.992 15.54ZM310.703 19.726C310.183 20.194 309.551 20.5667 308.805 20.844C308.06 21.1213 307.297 21.26 306.517 21.26C305.72 21.26 304.966 21.1127 304.255 20.818C303.562 20.506 302.955 20.0987 302.435 19.596C301.915 19.076 301.499 18.4693 301.187 17.776C300.893 17.0827 300.745 16.346 300.745 15.566C300.745 14.786 300.893 14.0493 301.187 13.356C301.499 12.6627 301.915 12.056 302.435 11.536C302.955 11.016 303.553 10.6087 304.229 10.314C304.923 10.002 305.659 9.846 306.439 9.846C307.67 9.846 308.736 10.2187 309.637 10.964C310.556 11.692 311.215 12.654 311.613 13.85C311.076 14.0407 310.461 14.2747 309.767 14.552C309.074 14.8293 308.355 15.124 307.609 15.436C306.864 15.7307 306.119 16.0253 305.373 16.32C304.628 16.6147 303.935 16.8833 303.293 17.126C303.588 17.7153 304.013 18.192 304.567 18.556C305.139 18.9027 305.772 19.076 306.465 19.076C306.933 19.076 307.401 18.9893 307.869 18.816C308.355 18.6427 308.745 18.4087 309.039 18.114L310.703 19.726ZM308.831 13.33C308.623 12.8967 308.294 12.576 307.843 12.368C307.393 12.1427 306.933 12.03 306.465 12.03C305.963 12.03 305.495 12.1253 305.061 12.316C304.645 12.5067 304.281 12.7667 303.969 13.096C303.657 13.408 303.406 13.772 303.215 14.188C303.042 14.604 302.955 15.0287 302.955 15.462C302.955 15.5487 302.955 15.6093 302.955 15.644C302.973 15.6787 302.981 15.7047 302.981 15.722C303.432 15.5487 303.917 15.358 304.437 15.15C304.975 14.9247 305.503 14.708 306.023 14.5C306.543 14.2747 307.046 14.0667 307.531 13.876C308.017 13.668 308.45 13.486 308.831 13.33ZM314.471 5.348H316.681V10.158H319.593V12.134H316.681V21H314.471V12.134H312.521V10.158H314.471V5.348ZM322.367 5.348H324.577V10.158H327.489V12.134H324.577V21H322.367V12.134H320.417V10.158H322.367V5.348ZM332.318 26.226H330.082C330.324 25.7233 330.55 25.238 330.758 24.77C330.983 24.3193 331.2 23.8513 331.408 23.366C331.633 22.898 331.858 22.404 332.084 21.884C332.309 21.3813 332.56 20.8353 332.838 20.246C332.439 19.466 332.032 18.6513 331.616 17.802C331.2 16.9353 330.784 16.0687 330.368 15.202C329.952 14.3353 329.536 13.4687 329.12 12.602C328.721 11.7353 328.322 10.912 327.924 10.132H330.342C330.966 11.3627 331.477 12.4027 331.876 13.252C332.292 14.1013 332.63 14.838 332.89 15.462C333.167 16.0687 333.384 16.5887 333.54 17.022C333.713 17.4553 333.86 17.854 333.982 18.218C334.12 17.854 334.268 17.4553 334.424 17.022C334.597 16.5887 334.814 16.0687 335.074 15.462C335.351 14.838 335.689 14.1013 336.088 13.252C336.504 12.4027 337.024 11.3627 337.648 10.132H340.066L332.318 26.226ZM347.475 5.972C347.475 5.556 347.623 5.20933 347.917 4.932C348.229 4.65467 348.559 4.516 348.905 4.516C349.252 4.516 349.573 4.65467 349.867 4.932C350.162 5.20933 350.309 5.556 350.309 5.972C350.309 6.388 350.162 6.73467 349.867 7.012C349.573 7.272 349.252 7.402 348.905 7.402C348.559 7.402 348.229 7.272 347.917 7.012C347.623 6.73467 347.475 6.388 347.475 5.972ZM349.971 21H347.761V10.132H349.971V21ZM353.093 10.132H355.043C355.078 10.6693 355.104 11.1633 355.121 11.614C355.156 12.0473 355.191 12.4807 355.225 12.914C355.624 11.978 356.144 11.2413 356.785 10.704C357.444 10.1493 358.319 9.86333 359.411 9.846C360.469 9.846 361.318 10.1147 361.959 10.652C362.601 11.1893 362.973 11.8913 363.077 12.758C363.511 11.874 364.039 11.172 364.663 10.652C365.305 10.132 366.163 9.86333 367.237 9.846C368.364 9.846 369.248 10.1493 369.889 10.756C370.548 11.3627 370.895 12.1427 370.929 13.096V21H368.693V14.11C368.659 13.5553 368.468 13.0873 368.121 12.706C367.792 12.3073 367.246 12.0907 366.483 12.056C365.443 12.056 364.629 12.394 364.039 13.07C363.45 13.7287 363.138 14.578 363.103 15.618V21H360.893V14.11C360.859 13.5553 360.659 13.0873 360.295 12.706C359.949 12.3073 359.411 12.0907 358.683 12.056C358.163 12.056 357.695 12.1513 357.279 12.342C356.863 12.5153 356.508 12.758 356.213 13.07C355.919 13.382 355.693 13.7547 355.537 14.188C355.381 14.6213 355.303 15.098 355.303 15.618V21H353.093V10.132ZM373.185 15.67C373.185 14.8727 373.332 14.1273 373.627 13.434C373.939 12.7233 374.355 12.108 374.875 11.588C375.395 11.0507 375.993 10.626 376.669 10.314C377.362 10.002 378.099 9.846 378.879 9.846C379.399 9.846 379.876 9.91533 380.309 10.054C380.742 10.1753 381.115 10.3313 381.427 10.522C381.739 10.7127 381.99 10.912 382.181 11.12C382.372 11.328 382.502 11.51 382.571 11.666L382.675 10.132H384.807V21H382.571V19.622C382.484 19.7607 382.346 19.9253 382.155 20.116C381.964 20.3067 381.713 20.4887 381.401 20.662C381.106 20.818 380.751 20.9567 380.335 21.078C379.919 21.1993 379.442 21.26 378.905 21.26C378.073 21.26 377.302 21.1127 376.591 20.818C375.898 20.506 375.3 20.0987 374.797 19.596C374.294 19.076 373.896 18.478 373.601 17.802C373.324 17.126 373.185 16.4153 373.185 15.67ZM375.421 15.54C375.421 16.0427 375.508 16.5107 375.681 16.944C375.872 17.3773 376.123 17.75 376.435 18.062C376.747 18.374 377.12 18.6253 377.553 18.816C377.986 18.9893 378.463 19.076 378.983 19.076C379.503 19.076 379.98 18.9893 380.413 18.816C380.864 18.6253 381.245 18.374 381.557 18.062C381.886 17.7327 382.138 17.36 382.311 16.944C382.484 16.5107 382.571 16.0427 382.571 15.54C382.571 15.0373 382.484 14.578 382.311 14.162C382.138 13.7287 381.886 13.356 381.557 13.044C381.245 12.732 380.864 12.4893 380.413 12.316C379.98 12.1253 379.503 12.03 378.983 12.03C378.463 12.03 377.986 12.1253 377.553 12.316C377.12 12.4893 376.747 12.732 376.435 13.044C376.123 13.356 375.872 13.7287 375.681 14.162C375.508 14.578 375.421 15.0373 375.421 15.54ZM387.201 15.592C387.201 14.7773 387.348 14.0233 387.643 13.33C387.938 12.6193 388.336 12.0127 388.839 11.51C389.342 10.99 389.931 10.5827 390.607 10.288C391.283 9.99333 392.002 9.846 392.765 9.846C393.354 9.846 393.874 9.924 394.325 10.08C394.793 10.236 395.183 10.418 395.495 10.626C395.807 10.834 396.05 11.042 396.223 11.25C396.414 11.4407 396.535 11.5793 396.587 11.666C396.587 11.4233 396.604 11.172 396.639 10.912C396.674 10.6347 396.691 10.3747 396.691 10.132H398.823V20.506C398.823 22.3087 398.294 23.7127 397.237 24.718C396.18 25.7233 394.75 26.226 392.947 26.226C392.323 26.226 391.76 26.1567 391.257 26.018C390.772 25.8967 390.321 25.732 389.905 25.524C389.506 25.316 389.134 25.0733 388.787 24.796C388.458 24.5187 388.128 24.2327 387.799 23.938L389.229 22.43C389.766 22.9327 390.312 23.3313 390.867 23.626C391.439 23.9207 392.115 24.068 392.895 24.068C394.056 24.068 394.958 23.7907 395.599 23.236C396.24 22.6813 396.57 21.91 396.587 20.922V20.168C396.587 20.0293 396.604 19.882 396.639 19.726C396.674 19.5527 396.691 19.4227 396.691 19.336C396.535 19.544 396.336 19.7693 396.093 20.012C395.868 20.2373 395.599 20.4453 395.287 20.636C394.975 20.8093 394.611 20.9567 394.195 21.078C393.779 21.1993 393.311 21.26 392.791 21.26C391.976 21.26 391.231 21.1127 390.555 20.818C389.879 20.5233 389.29 20.1247 388.787 19.622C388.284 19.102 387.894 18.504 387.617 17.828C387.34 17.1347 387.201 16.3893 387.201 15.592ZM389.437 15.54C389.437 16.0427 389.524 16.5107 389.697 16.944C389.888 17.3773 390.139 17.75 390.451 18.062C390.763 18.374 391.136 18.6253 391.569 18.816C392.002 18.9893 392.479 19.076 392.999 19.076C393.519 19.076 393.996 18.9893 394.429 18.816C394.88 18.6253 395.261 18.374 395.573 18.062C395.902 17.7327 396.154 17.36 396.327 16.944C396.5 16.5107 396.587 16.0427 396.587 15.54C396.587 15.0373 396.5 14.578 396.327 14.162C396.154 13.7287 395.902 13.356 395.573 13.044C395.261 12.732 394.88 12.4893 394.429 12.316C393.996 12.1253 393.519 12.03 392.999 12.03C392.479 12.03 392.002 12.1253 391.569 12.316C391.136 12.4893 390.763 12.732 390.451 13.044C390.139 13.356 389.888 13.7287 389.697 14.162C389.524 14.578 389.437 15.0373 389.437 15.54ZM411.149 19.726C410.629 20.194 409.996 20.5667 409.251 20.844C408.505 21.1213 407.743 21.26 406.963 21.26C406.165 21.26 405.411 21.1127 404.701 20.818C404.007 20.506 403.401 20.0987 402.881 19.596C402.361 19.076 401.945 18.4693 401.633 17.776C401.338 17.0827 401.191 16.346 401.191 15.566C401.191 14.786 401.338 14.0493 401.633 13.356C401.945 12.6627 402.361 12.056 402.881 11.536C403.401 11.016 403.999 10.6087 404.675 10.314C405.368 10.002 406.105 9.846 406.885 9.846C408.115 9.846 409.181 10.2187 410.083 10.964C411.001 11.692 411.66 12.654 412.059 13.85C411.521 14.0407 410.906 14.2747 410.213 14.552C409.519 14.8293 408.8 15.124 408.055 15.436C407.309 15.7307 406.564 16.0253 405.819 16.32C405.073 16.6147 404.38 16.8833 403.739 17.126C404.033 17.7153 404.458 18.192 405.013 18.556C405.585 18.9027 406.217 19.076 406.911 19.076C407.379 19.076 407.847 18.9893 408.315 18.816C408.8 18.6427 409.19 18.4087 409.485 18.114L411.149 19.726ZM409.277 13.33C409.069 12.8967 408.739 12.576 408.289 12.368C407.838 12.1427 407.379 12.03 406.911 12.03C406.408 12.03 405.94 12.1253 405.507 12.316C405.091 12.5067 404.727 12.7667 404.415 13.096C404.103 13.408 403.851 13.772 403.661 14.188C403.487 14.604 403.401 15.0287 403.401 15.462C403.401 15.5487 403.401 15.6093 403.401 15.644C403.418 15.6787 403.427 15.7047 403.427 15.722C403.877 15.5487 404.363 15.358 404.883 15.15C405.42 14.9247 405.949 14.708 406.469 14.5C406.989 14.2747 407.491 14.0667 407.977 13.876C408.462 13.668 408.895 13.486 409.277 13.33ZM420.038 11.094L418.868 12.654C418.851 12.6367 418.79 12.5933 418.686 12.524C418.582 12.4547 418.443 12.3853 418.27 12.316C418.114 12.2467 417.923 12.186 417.698 12.134C417.49 12.0647 417.273 12.03 417.048 12.03C416.753 12.03 416.459 12.0993 416.164 12.238C415.887 12.3767 415.748 12.6367 415.748 13.018C415.748 13.3473 415.861 13.616 416.086 13.824C416.329 14.032 416.623 14.2227 416.97 14.396C417.317 14.552 417.689 14.7167 418.088 14.89C418.504 15.0633 418.885 15.28 419.232 15.54C419.579 15.7827 419.865 16.0947 420.09 16.476C420.333 16.84 420.454 17.308 420.454 17.88C420.454 18.8507 420.116 19.6567 419.44 20.298C418.781 20.922 417.871 21.234 416.71 21.234C416.034 21.234 415.367 21.1213 414.708 20.896C414.067 20.6533 413.547 20.3067 413.148 19.856C413.269 19.7347 413.399 19.5787 413.538 19.388C413.694 19.1973 413.841 19.0153 413.98 18.842C414.136 18.6687 414.257 18.53 414.344 18.426C414.448 18.3047 414.509 18.244 414.526 18.244C414.526 18.2613 414.587 18.3133 414.708 18.4C414.847 18.4867 415.02 18.582 415.228 18.686C415.436 18.7727 415.67 18.8593 415.93 18.946C416.19 19.0153 416.45 19.05 416.71 19.05C417.126 19.05 417.481 18.946 417.776 18.738C418.071 18.53 418.218 18.2527 418.218 17.906C418.218 17.594 418.097 17.3513 417.854 17.178C417.629 16.9873 417.343 16.814 416.996 16.658C416.649 16.502 416.268 16.346 415.852 16.19C415.436 16.0167 415.055 15.8 414.708 15.54C414.361 15.28 414.067 14.9593 413.824 14.578C413.599 14.1793 413.486 13.668 413.486 13.044C413.486 12.4547 413.59 11.9607 413.798 11.562C414.023 11.1633 414.301 10.8427 414.63 10.6C414.977 10.34 415.358 10.158 415.774 10.054C416.19 9.93267 416.589 9.872 416.97 9.872C417.473 9.872 418.01 9.976 418.582 10.184C419.154 10.392 419.639 10.6953 420.038 11.094ZM428.522 5.972C428.522 5.556 428.669 5.20933 428.964 4.932C429.276 4.65467 429.605 4.516 429.952 4.516C430.299 4.516 430.619 4.65467 430.914 4.932C431.209 5.20933 431.356 5.556 431.356 5.972C431.356 6.388 431.209 6.73467 430.914 7.012C430.619 7.272 430.299 7.402 429.952 7.402C429.605 7.402 429.276 7.272 428.964 7.012C428.669 6.73467 428.522 6.388 428.522 5.972ZM431.018 21H428.808V10.132H431.018V21ZM434.14 10.132H436.09C436.125 10.6693 436.151 11.1633 436.168 11.614C436.203 12.0473 436.237 12.4807 436.272 12.914C436.671 11.978 437.234 11.2327 437.962 10.678C438.707 10.1233 439.617 9.846 440.692 9.846C441.784 9.846 442.659 10.1493 443.318 10.756C443.977 11.3627 444.323 12.1427 444.358 13.096V21H442.122V14.11C442.087 13.5553 441.897 13.0873 441.55 12.706C441.203 12.3073 440.657 12.0907 439.912 12.056C439.392 12.056 438.915 12.1513 438.482 12.342C438.049 12.5153 437.676 12.758 437.364 13.07C437.052 13.382 436.801 13.7547 436.61 14.188C436.437 14.6213 436.35 15.098 436.35 15.618V21H434.14V10.132ZM452.607 15.54C452.607 14.76 452.754 14.0233 453.049 13.33C453.361 12.6367 453.777 12.0387 454.297 11.536C454.817 11.016 455.423 10.6087 456.117 10.314C456.827 10.002 457.59 9.846 458.405 9.846C459.219 9.846 459.973 10.002 460.667 10.314C461.377 10.6087 461.984 11.016 462.487 11.536C463.007 12.0387 463.405 12.6367 463.683 13.33C463.977 14.0233 464.125 14.76 464.125 15.54C464.125 16.32 463.977 17.0567 463.683 17.75C463.405 18.4433 463.007 19.05 462.487 19.57C461.984 20.09 461.377 20.506 460.667 20.818C459.973 21.1127 459.211 21.26 458.379 21.26C457.581 21.26 456.827 21.1213 456.117 20.844C455.423 20.5667 454.817 20.1767 454.297 19.674C453.777 19.1713 453.361 18.5733 453.049 17.88C452.754 17.1693 452.607 16.3893 452.607 15.54ZM454.817 15.566C454.817 16.0513 454.903 16.5107 455.077 16.944C455.267 17.36 455.519 17.7327 455.831 18.062C456.16 18.374 456.533 18.6253 456.949 18.816C457.382 18.9893 457.841 19.076 458.327 19.076C458.812 19.076 459.271 18.9893 459.705 18.816C460.138 18.6253 460.511 18.374 460.823 18.062C461.152 17.7327 461.412 17.36 461.603 16.944C461.793 16.5107 461.889 16.0513 461.889 15.566C461.889 15.0807 461.793 14.6213 461.603 14.188C461.412 13.7547 461.152 13.382 460.823 13.07C460.511 12.7407 460.138 12.4893 459.705 12.316C459.271 12.1253 458.812 12.03 458.327 12.03C457.841 12.03 457.382 12.1253 456.949 12.316C456.533 12.4893 456.16 12.7407 455.831 13.07C455.519 13.382 455.267 13.7547 455.077 14.188C454.903 14.6213 454.817 15.0807 454.817 15.566ZM466.488 10.132H468.438C468.472 10.6693 468.498 11.1633 468.516 11.614C468.55 12.0473 468.585 12.4807 468.62 12.914C469.018 11.978 469.582 11.2327 470.31 10.678C471.055 10.1233 471.965 9.846 473.04 9.846C474.132 9.846 475.007 10.1493 475.666 10.756C476.324 11.3627 476.671 12.1427 476.706 13.096V21H474.47V14.11C474.435 13.5553 474.244 13.0873 473.898 12.706C473.551 12.3073 473.005 12.0907 472.26 12.056C471.74 12.056 471.263 12.1513 470.83 12.342C470.396 12.5153 470.024 12.758 469.712 13.07C469.4 13.382 469.148 13.7547 468.958 14.188C468.784 14.6213 468.698 15.098 468.698 15.618V21H466.488V10.132ZM488.92 19.726C488.4 20.194 487.768 20.5667 487.022 20.844C486.277 21.1213 485.514 21.26 484.734 21.26C483.937 21.26 483.183 21.1127 482.472 20.818C481.779 20.506 481.172 20.0987 480.652 19.596C480.132 19.076 479.716 18.4693 479.404 17.776C479.11 17.0827 478.962 16.346 478.962 15.566C478.962 14.786 479.11 14.0493 479.404 13.356C479.716 12.6627 480.132 12.056 480.652 11.536C481.172 11.016 481.77 10.6087 482.446 10.314C483.14 10.002 483.876 9.846 484.656 9.846C485.887 9.846 486.953 10.2187 487.854 10.964C488.773 11.692 489.432 12.654 489.83 13.85C489.293 14.0407 488.678 14.2747 487.984 14.552C487.291 14.8293 486.572 15.124 485.826 15.436C485.081 15.7307 484.336 16.0253 483.59 16.32C482.845 16.6147 482.152 16.8833 481.51 17.126C481.805 17.7153 482.23 18.192 482.784 18.556C483.356 18.9027 483.989 19.076 484.682 19.076C485.15 19.076 485.618 18.9893 486.086 18.816C486.572 18.6427 486.962 18.4087 487.256 18.114L488.92 19.726ZM487.048 13.33C486.84 12.8967 486.511 12.576 486.06 12.368C485.61 12.1427 485.15 12.03 484.682 12.03C484.18 12.03 483.712 12.1253 483.278 12.316C482.862 12.5067 482.498 12.7667 482.186 13.096C481.874 13.408 481.623 13.772 481.432 14.188C481.259 14.604 481.172 15.0287 481.172 15.462C481.172 15.5487 481.172 15.6093 481.172 15.644C481.19 15.6787 481.198 15.7047 481.198 15.722C481.649 15.5487 482.134 15.358 482.654 15.15C483.192 14.9247 483.72 14.708 484.24 14.5C484.76 14.2747 485.263 14.0667 485.748 13.876C486.234 13.668 486.667 13.486 487.048 13.33ZM506.948 15.54C506.948 15.0373 506.87 14.578 506.714 14.162C506.558 13.7287 506.332 13.356 506.038 13.044C505.743 12.732 505.388 12.4893 504.972 12.316C504.556 12.1253 504.088 12.03 503.568 12.03C503.048 12.03 502.562 12.1253 502.112 12.316C501.678 12.4893 501.306 12.732 500.994 13.044C500.682 13.356 500.43 13.7287 500.24 14.162C500.066 14.578 499.98 15.0373 499.98 15.54C499.98 16.0427 500.066 16.5107 500.24 16.944C500.43 17.3773 500.682 17.75 500.994 18.062C501.306 18.374 501.678 18.6253 502.112 18.816C502.562 18.9893 503.048 19.076 503.568 19.076C504.088 19.076 504.556 18.9893 504.972 18.816C505.388 18.6253 505.743 18.374 506.038 18.062C506.332 17.7327 506.558 17.36 506.714 16.944C506.87 16.5107 506.948 16.0427 506.948 15.54ZM509.366 15.592C509.366 16.4067 509.227 17.1607 508.95 17.854C508.672 18.5473 508.282 19.1453 507.78 19.648C507.277 20.1507 506.67 20.5493 505.96 20.844C505.266 21.1213 504.504 21.26 503.672 21.26C503.238 21.26 502.822 21.208 502.424 21.104C502.042 21.0173 501.687 20.896 501.358 20.74C501.028 20.5667 500.742 20.3847 500.5 20.194C500.257 19.986 500.075 19.778 499.954 19.57C499.954 19.6567 499.954 19.752 499.954 19.856C499.971 19.9427 499.98 20.0293 499.98 20.116V26.226H497.744V10.132H499.902C499.902 10.34 499.91 10.6 499.928 10.912C499.962 11.2067 499.98 11.4753 499.98 11.718C500.118 11.51 500.3 11.302 500.526 11.094C500.768 10.8687 501.046 10.6693 501.358 10.496C501.687 10.3053 502.051 10.1493 502.45 10.028C502.848 9.90667 503.29 9.846 503.776 9.846C504.608 9.846 505.362 9.98467 506.038 10.262C506.731 10.522 507.32 10.9033 507.806 11.406C508.308 11.8913 508.69 12.4893 508.95 13.2C509.227 13.9107 509.366 14.708 509.366 15.592ZM514.021 21H511.811V0.798H514.021V21ZM516.413 15.67C516.413 14.8727 516.561 14.1273 516.855 13.434C517.167 12.7233 517.583 12.108 518.103 11.588C518.623 11.0507 519.221 10.626 519.897 10.314C520.591 10.002 521.327 9.846 522.107 9.846C522.627 9.846 523.104 9.91533 523.537 10.054C523.971 10.1753 524.343 10.3313 524.655 10.522C524.967 10.7127 525.219 10.912 525.409 11.12C525.6 11.328 525.73 11.51 525.799 11.666L525.903 10.132H528.035V21H525.799V19.622C525.713 19.7607 525.574 19.9253 525.383 20.116C525.193 20.3067 524.941 20.4887 524.629 20.662C524.335 20.818 523.979 20.9567 523.563 21.078C523.147 21.1993 522.671 21.26 522.133 21.26C521.301 21.26 520.53 21.1127 519.819 20.818C519.126 20.506 518.528 20.0987 518.025 19.596C517.523 19.076 517.124 18.478 516.829 17.802C516.552 17.126 516.413 16.4153 516.413 15.67ZM518.649 15.54C518.649 16.0427 518.736 16.5107 518.909 16.944C519.1 17.3773 519.351 17.75 519.663 18.062C519.975 18.374 520.348 18.6253 520.781 18.816C521.215 18.9893 521.691 19.076 522.211 19.076C522.731 19.076 523.208 18.9893 523.641 18.816C524.092 18.6253 524.473 18.374 524.785 18.062C525.115 17.7327 525.366 17.36 525.539 16.944C525.713 16.5107 525.799 16.0427 525.799 15.54C525.799 15.0373 525.713 14.578 525.539 14.162C525.366 13.7287 525.115 13.356 524.785 13.044C524.473 12.732 524.092 12.4893 523.641 12.316C523.208 12.1253 522.731 12.03 522.211 12.03C521.691 12.03 521.215 12.1253 520.781 12.316C520.348 12.4893 519.975 12.732 519.663 13.044C519.351 13.356 519.1 13.7287 518.909 14.162C518.736 14.578 518.649 15.0373 518.649 15.54ZM538.438 18.322C538.68 18.6167 538.906 18.9027 539.114 19.18C539.339 19.44 539.564 19.7173 539.79 20.012C539.304 20.3933 538.758 20.6967 538.152 20.922C537.545 21.1473 536.886 21.26 536.176 21.26C535.378 21.26 534.624 21.1127 533.914 20.818C533.22 20.506 532.614 20.09 532.094 19.57C531.574 19.05 531.158 18.4433 530.846 17.75C530.551 17.0567 530.404 16.32 530.404 15.54C530.404 14.76 530.551 14.0233 530.846 13.33C531.158 12.6367 531.574 12.0387 532.094 11.536C532.614 11.016 533.22 10.6087 533.914 10.314C534.624 10.002 535.378 9.846 536.176 9.846C536.904 9.846 537.571 9.95867 538.178 10.184C538.802 10.4093 539.365 10.7127 539.868 11.094L538.438 12.784C538.143 12.5413 537.805 12.3593 537.424 12.238C537.042 12.0993 536.626 12.03 536.176 12.03C535.656 12.03 535.179 12.1253 534.746 12.316C534.312 12.4893 533.931 12.732 533.602 13.044C533.29 13.356 533.047 13.7287 532.874 14.162C532.7 14.578 532.614 15.0373 532.614 15.54C532.614 16.0427 532.7 16.5107 532.874 16.944C533.047 17.36 533.29 17.7327 533.602 18.062C533.931 18.374 534.312 18.6253 534.746 18.816C535.179 18.9893 535.656 19.076 536.176 19.076C536.626 19.076 537.042 19.0153 537.424 18.894C537.805 18.7553 538.143 18.5647 538.438 18.322ZM550.797 19.726C550.277 20.194 549.645 20.5667 548.899 20.844C548.154 21.1213 547.391 21.26 546.611 21.26C545.814 21.26 545.06 21.1127 544.349 20.818C543.656 20.506 543.049 20.0987 542.529 19.596C542.009 19.076 541.593 18.4693 541.281 17.776C540.987 17.0827 540.839 16.346 540.839 15.566C540.839 14.786 540.987 14.0493 541.281 13.356C541.593 12.6627 542.009 12.056 542.529 11.536C543.049 11.016 543.647 10.6087 544.323 10.314C545.017 10.002 545.753 9.846 546.533 9.846C547.764 9.846 548.83 10.2187 549.731 10.964C550.65 11.692 551.309 12.654 551.707 13.85C551.17 14.0407 550.555 14.2747 549.861 14.552C549.168 14.8293 548.449 15.124 547.703 15.436C546.958 15.7307 546.213 16.0253 545.467 16.32C544.722 16.6147 544.029 16.8833 543.387 17.126C543.682 17.7153 544.107 18.192 544.661 18.556C545.233 18.9027 545.866 19.076 546.559 19.076C547.027 19.076 547.495 18.9893 547.963 18.816C548.449 18.6427 548.839 18.4087 549.133 18.114L550.797 19.726ZM548.925 13.33C548.717 12.8967 548.388 12.576 547.937 12.368C547.487 12.1427 547.027 12.03 546.559 12.03C546.057 12.03 545.589 12.1253 545.155 12.316C544.739 12.5067 544.375 12.7667 544.063 13.096C543.751 13.408 543.5 13.772 543.309 14.188C543.136 14.604 543.049 15.0287 543.049 15.462C543.049 15.5487 543.049 15.6093 543.049 15.644C543.067 15.6787 543.075 15.7047 543.075 15.722C543.526 15.5487 544.011 15.358 544.531 15.15C545.069 14.9247 545.597 14.708 546.117 14.5C546.637 14.2747 547.14 14.0667 547.625 13.876C548.111 13.668 548.544 13.486 548.925 13.33ZM554.33 1.24H556.722V16.632H554.33V1.24ZM555.526 21.104C555.162 21.104 554.824 20.9653 554.512 20.688C554.218 20.4107 554.07 20.0553 554.07 19.622C554.07 19.1887 554.218 18.8333 554.512 18.556C554.824 18.2787 555.162 18.14 555.526 18.14C555.89 18.14 556.22 18.2787 556.514 18.556C556.809 18.8333 556.956 19.1887 556.956 19.622C556.956 20.0553 556.809 20.4107 556.514 20.688C556.22 20.9653 555.89 21.104 555.526 21.104Z" fill="#4F4F4F"/>
</svg>
