<svg width="24" height="24" viewBox="0 0 24 24" fill="none" xmlns="http://www.w3.org/2000/svg">
<g id="sidebar">
<path id="Vector (Stroke)" fill-rule="evenodd" clip-rule="evenodd" d="M19 4C19.5523 4 20 4.44772 20 5V19C20 19.5523 19.5523 20 19 20H5C4.44772 20 4 19.5523 4 19V5C4 4.44772 4.44772 4 5 4H19ZM22 5C22 3.34315 20.6569 2 19 2H5C3.34315 2 2 3.34315 2 5V19C2 20.6569 3.34315 22 5 22H19C20.6569 22 22 20.6569 22 19V5Z" fill="#BDBDBD"/>
<path id="Vector (Stroke)_2" fill-rule="evenodd" clip-rule="evenodd" d="M15 2C14.4477 2 14 2.44772 14 3V21C14 21.5523 14.4477 22 15 22C15.5523 22 16 21.5523 16 21V3C16 2.44772 15.5523 2 15 2Z" fill="#BDBDBD"/>
</g>
</svg>
