<svg width="19" height="19" viewBox="0 0 19 19" fill="none" xmlns="http://www.w3.org/2000/svg">
<g id="trash-2">
<path id="Vector (Stroke)" fill-rule="evenodd" clip-rule="evenodd" d="M2.3916 5.17535C2.3916 4.76114 2.72739 4.42535 3.1416 4.42535H16.6416C17.0558 4.42535 17.3916 4.76114 17.3916 5.17535C17.3916 5.58957 17.0558 5.92535 16.6416 5.92535H3.1416C2.72739 5.92535 2.3916 5.58957 2.3916 5.17535Z" fill="#BDBDBD"/>
<path id="Vector (Stroke)_2" fill-rule="evenodd" clip-rule="evenodd" d="M8.3916 2.92535C8.19269 2.92535 8.00192 3.00437 7.86127 3.14502C7.72062 3.28568 7.6416 3.47644 7.6416 3.67535V4.42535H12.1416V3.67535C12.1416 3.47644 12.0626 3.28568 11.9219 3.14502C11.7813 3.00437 11.5905 2.92535 11.3916 2.92535H8.3916ZM13.6416 4.42535V3.67535C13.6416 3.07862 13.4045 2.50632 12.9826 2.08436C12.5606 1.66241 11.9883 1.42535 11.3916 1.42535H8.3916C7.79486 1.42535 7.22257 1.66241 6.80061 2.08436C6.37865 2.50632 6.1416 3.07862 6.1416 3.67535V4.42535H4.6416C4.22739 4.42535 3.8916 4.76114 3.8916 5.17535V15.6754C3.8916 16.2721 4.12865 16.8444 4.55061 17.2663C4.97257 17.6883 5.54486 17.9254 6.1416 17.9254H13.6416C14.2383 17.9254 14.8106 17.6883 15.2326 17.2663C15.6545 16.8444 15.8916 16.2721 15.8916 15.6754V5.17535C15.8916 4.76114 15.5558 4.42535 15.1416 4.42535H13.6416ZM5.3916 5.92535V15.6754C5.3916 15.8743 5.47062 16.065 5.61127 16.2057C5.75192 16.3463 5.94269 16.4254 6.1416 16.4254H13.6416C13.8405 16.4254 14.0313 16.3463 14.1719 16.2057C14.3126 16.065 14.3916 15.8743 14.3916 15.6754V5.92535H5.3916Z" fill="#BDBDBD"/>
<path id="Vector (Stroke)_3" fill-rule="evenodd" clip-rule="evenodd" d="M8.3916 8.17535C8.80582 8.17535 9.1416 8.51114 9.1416 8.92535V13.4254C9.1416 13.8396 8.80582 14.1754 8.3916 14.1754C7.97739 14.1754 7.6416 13.8396 7.6416 13.4254V8.92535C7.6416 8.51114 7.97739 8.17535 8.3916 8.17535Z" fill="#BDBDBD"/>
<path id="Vector (Stroke)_4" fill-rule="evenodd" clip-rule="evenodd" d="M11.3916 8.17535C11.8058 8.17535 12.1416 8.51114 12.1416 8.92535V13.4254C12.1416 13.8396 11.8058 14.1754 11.3916 14.1754C10.9774 14.1754 10.6416 13.8396 10.6416 13.4254V8.92535C10.6416 8.51114 10.9774 8.17535 11.3916 8.17535Z" fill="#BDBDBD"/>
</g>
</svg>
